<?xml version="1.0" encoding="UTF-8"?>
<svg version="1.1" viewBox="0 0 2048 2048" width="4096" height="4096" xmlns="http://www.w3.org/2000/svg">
<path transform="translate(0)" d="m0 0h2048v2048h-2048z" fill="#fff"/>
<path transform="translate(471,842)" d="m0 0h9l14 3 14 7 9 8 7 11 5 15v16l-4 13v4l30 10 43 17 3-9 8-11 7-6 14-7 13-2 12 1 12 4 10 7 8 9 7 14 2 9v10l-3 12-6 11-9 10-10 6-11 4-5 1h-11l-10-2-5-2h-5l-7 7-8 7-11 11-8 7-16 15-8 7-10 10-8 7-14 13-5 4 3 9 2 8v17l-4 13-5 9-9 10-11 7-11 4-6 1h-12l-13-3-13-7-11-11-6-10-4-15v-12l3-12 3-6-2-4-10-9-15-14-8-7-11-11-8-7-17-16-24-22-18 4h-12l-10-2-14-7-8-7-7-11-4-10-1-5v-14l4-13 9-14 7-6 12-6 8-2h19l12 4 10 7 9 10 5 10v3l27-10 34-13 8-3h5l-5-15-1-6v-12l4-13 6-11 6-7 10-7 12-5z" fill="#527FB3"/>
<path transform="translate(643,911)" d="m0 0 12 1 12 4 10 7 8 9 7 14 2 9v10l-3 12-6 11-9 10-10 6-11 4-5 1h-11l-10-2-5-2h-5l-7 7-8 7-11 11-8 7-16 15-8 7-10 10-8 7-14 13-5 4 3 9 2 8v17l-4 13-5 9-9 10-11 7-11 4-6 1h-12l-13-3-13-7-11-11-6-10-4-15v-12l3-12 3-6-2-4-10-9-15-14-8-7-11-11-8-7-17-16-24-22-18 4h-12l-10-2-14-7-8-7-7-11-4-10-1-5v-14l4-13 9-14 7-6 12-6 8-2h19l12 4 10 7 9 10 5 10 2 11v18l-5 12-4 6 1 4 10 9 11 11 8 7 17 16 10 9 7 7 8 7 17 16 3 3 20-10 4-1h25l13 5 9 6 12-11 8-7 10-10 8-7 13-12 16-15 15-14 12-11-6-11-4-11v-11l2-15 6-12 9-10 12-7 10-3z" fill="#394455"/>
<path transform="translate(513,933)" d="m0 0 35 12 30 11 18 7 3 14 6 11 2 4-8 8-8 7-17 16-30 28-8 7-10 10-8 7-7 5-10-7-15-5-1-1v-73l1-47 12-5 12-7z" fill="#fff"/>
<path transform="translate(438,934)" d="m0 0 5 1 13 8 12 4v121l-12 4-11 6-4 2-12-12-8-7-33-31-10-9-16-15-9-9-5-4 1-4 7-14 2-11 9-4 38-14z" fill="#fff"/>
<path transform="translate(1686,931)" d="m0 0h29l11 26 14 33 11 28 10 24 11 27-1 3-30-1-5-12-8-21-57-1-3 10-8 20-2 4h-28l3-10 15-37 19-47 14-34z" fill="#3A4557"/>
<path transform="translate(780,927)" d="m0 0h35l17 3 12 5 8 6 7 8 4 10 1 8v9l-2 12-6 12-9 9-14 7-14 3-8 1h-16l-9-1v51h-20v-141l1-1z" fill="#3A4659"/>
<path transform="translate(1468,973)" d="m0 0h15l11 3 11 6 8 9 5 12 2 13v11l-1 1-72 1 5 15 5 5 8 5 9 2h10l14-3 12-4 3 6 1 8-11 5-13 3h-25l-14-5-10-7-7-8-5-12-2-10v-14l3-12 6-12 9-9 14-7z" fill="#3A4759"/>
<path transform="translate(984,973)" d="m0 0 16 1 12 5 8 7 6 9 4 11 1 6v14l-1 2h-72l4 13 4 6 6 5 8 3h23l15-5 4-1 4 12-1 3-18 6-6 1h-24l-9-2-12-7-10-10-5-10-2-8-1-11 2-15 5-12 7-10 10-7 9-4z" fill="#3A475A"/>
<path transform="translate(1169,973)" d="m0 0h10l11 2 14 7 6 7 6 12 2 9v18h-72l3 12 6 9 8 5 9 2h12l15-3 7-3 4 1 3 12-12 5-6 2-7 1h-23l-9-2-11-6-9-8-6-10-4-14v-16l4-15 6-10 8-8 14-7z" fill="#3A4759"/>
<path transform="translate(1283,973)" d="m0 0h13l10 2 10 6 5 7 3 11v71h-18l-2-67-4-8-6-4-4-1h-13l-9 3-8 7-4 8-2 62h-18v-94h16l1 3v12l5-5 11-8 9-4z" fill="#3A475A"/>
<path transform="translate(1587,931)" d="m0 0h29v141h-17l-12-1z" fill="#3A4659"/>
<path transform="translate(1073,973)" d="m0 0h17l14 3 6 3-2 10-1 3-7-1-15-3h-9l-12 4-1 3v9l6 5 27 10 9 5 7 8 3 9-1 10-4 8-8 7-9 4-5 1h-24l-15-4-6-3 2-10 1-4 10 3 11 3h18l7-3 3-4v-8l-5-5-12-5-20-7-9-6-5-10v-14l5-10 7-6 11-4z" fill="#3B475A"/>
<path transform="translate(1387,973)" d="m0 0 17 1 13 4 2 1-3 13-3 1-10-3-14-1-12 3-9 6-5 8-2 8v16l4 12 8 9 10 4h18l12-4h2l3 10v5l-13 4-5 1h-22l-13-4-10-7-8-9-4-8-2-9v-23l3-10 6-10 4-5 10-7 10-4z" fill="#3A475A"/>
<path transform="translate(787,943)" d="m0 0h24l13 2 10 5 4 5 4 11v15l-3 9-5 6-8 4-11 3h-29v-59z" fill="#fff"/>
<path transform="translate(923,973)" d="m0 0h9l1 1v17h-11l-11 4-5 5-5 8-2 10v18l-1 34h-18l-1-94 17-1 3 17 4-7 8-7 8-4z" fill="#3A4759"/>
<path transform="translate(473,725)" d="m0 0h7l6 4 3 5v67l-3 5-5 4-7 1-6-4-3-3-1-5 1-67 4-5z" fill="#527FB3"/>
<path transform="translate(365,774)" d="m0 0 8 1 10 9 34 34 4 6-1 8-7 6-7 1-6-3-30-30-5-4-9-11-1-6 3-7z" fill="#527FB3"/>
<path transform="translate(582,774)" d="m0 0 9 1 5 5 2 4-1 6-6 8-38 38-7 3-8-2-5-6v-10l44-44z" fill="#527FB3"/>
<path transform="translate(1170,987)" d="m0 0h8l8 2 7 4 5 8 2 8v6h-55l2-10 5-9 8-6z" fill="#fff"/>
<path transform="translate(982,987)" d="m0 0h8l9 2 6 4 4 5 3 8 1 9h-55l1-9 6-10 7-6z" fill="#fff"/>
<path transform="translate(1471,987)" d="m0 0 13 1 10 5 5 7 2 8v7h-54l1-9 4-8 7-7 7-3z" fill="#fff"/>
<path transform="translate(1699,960)" d="m0 0 2 3 11 29 8 21v3h-41l9-26z" fill="#fff"/>
<path transform="translate(998,929)" d="m0 0h21l-1 3-8 7-16 15-6 6-13-1 6-9 14-18z" fill="#3B4A5E"/>
</svg>
