<?xml version="1.0" encoding="UTF-8"?>
<svg version="1.1" viewBox="60 650 1980 570" xmlns="http://www.w3.org/2000/svg">
<path transform="translate(467,842)" d="m0 0h17l13 4 10 5 11 10 6 10 4 11 1 7v10l-2 9-2 5v6l27 9 36 14 6 3 4-2 6-11 4-6h2v-2l8-6 15-6 13-1 10 1 15 6 10 9 7 10 4 10 1 6v13l-2 9-3 7-6 10h-2l-2 4-10 7-10 4-3 1h-22l-9-3h-5l-3 1v2l-8 7-33 31-8 7-9 9h-2v2h-2v2h-2v2l-8 7-10 9-9 8v6l3 8 1 7v10l-2 10-5 13-9 11-10 7-8 4-6 2h-24l-12-4-11-8-8-8-6-10-2-5-2-10v-13l5-16-1-5-13-12-9-7v-2h-2v-2l-4-2-7-7-8-7-9-9-8-7-7-7-8-7-5-4v-2h-2v-2h-2v-2l-4-2v-2h-2v-2l-9-1-7 3h-23l-12-4-9-6v-2l-4-2-7-10-5-12-1-15 1-9 5-12 8-11 9-7 9-4 7-2h21l11 4 9 6 5 4 8 13 3 5 9-2 10-4 16-6 14-5 12-5 8-2 2-2-1-6-3-11v-17l4-11 9-14 3-1v-2h2v-2l13-8 4-2zm-32 92-5 3-21 7-6 3-11 3-11 5-10 3-8 3-4 2-4 15-7 11 1 5 15 14 4 2v2l8 7 7 7 8 7 3 3h2v2h2v2l8 7 11 11 8 7 3 3h2v2h2l2 4 6 5 5-1 8-5 11-4 4-2v-118l-2-3-12-4-8-5-4-3zm79-1-9 5-14 7-5 2-1 1v118l1 2 10 3 13 7 7-1 23-23 3-2v-2l4-2 14-13 2-1v-2h2v-2h2v-2l4-2 10-10 8-7 11-10 5-4 1-7-6-12-2-5-1-7-4-3-13-5-11-3-12-5-20-7-17-6z" fill="#3C4657"/>
<path transform="translate(467,842)" d="m0 0h17l13 4 10 5 11 10 6 10 4 11 1 7v10l-2 9-2 5v6l27 9 36 14 6 3 5-2-3 21-17-7-11-3-12-5-20-7-17-6-5-2-9 5-14 7-5 2v120h-14l-10 2 2-2 3-1v-118l-1-2-12-4-8-5-4-3h-7l-5 3-21 7-6 3-11 3-11 5-10 3-8 3-3 1-2 2-1-17-2-5 5 1 32-12 14-5 12-5 8-2 2-2-1-6-3-11v-17l4-11 9-14 3-1v-2h2v-2l13-8 4-2z" fill="#88A5C5"/>
<path transform="translate(1687,930)" d="m0 0h26l3 2 5 14 5 11 7 17 5 11 5 14 5 11 9 23 5 12 5 13 4 8-1 5-5 1-24-2-3-5-5-15-5-11-1-2h-55l-5 11-8 20-1 2-22 1-5-1 1-6 8-21 5-11 6-16 5-13 5-12 5-13 5-11 5-13 5-11 4-10zm11 32-4 10-3 10-5 12-5 14-2 4 1 4h39l1-4-5-11-5-17-5-10-3-11z" fill="#3E495A"/>
<path transform="translate(783,927)" d="m0 0h27l16 2 12 3 8 4 6 4v2h2l6 9 2 5 1 8v14l-1 9-5 10-7 9-8 6-9 4-7 2-16 2h-11l-12-1-1 49-3 2h-13l-4-2v-138l3-2zm11 15-7 1-1 1v58l7 2 18-1 10-2 10-4 5-3 4-7 2-7v-13l-4-12-5-6-12-5z" fill="#414C5D"/>
<path transform="translate(1468,973)" d="m0 0h14l9 2 9 4 6 4 6 7 4 6 2 6 2 15-1 10-1 1h-60l-10 1 1 9 7 11 14 7 4 1h8l28-7 4 8-1 5-10 5-7 2-9 1h-18l-10-2-9-3-11-9-7-9-4-13-1-17 2-12 4-10 5-8h2v-2h2v-2h2v-2l11-6 5-2zm1 14-9 3-8 7-4 7-2 6v4l17 1h32l7-2-2-12-7-9-7-4-6-1z" fill="#434E5F"/>
<path transform="translate(973,974)" d="m0 0h27l12 5 8 7 6 9 4 13v18l-1 2h-71l2 9 6 11 10 6 12 3 16-2 14-5h4l3 8-1 6-10 4-7 2-9 1h-18l-9-1-10-4-11-9-7-10-3-7-2-10v-14l3-13 7-13 8-8 14-7zm12 12-11 3-5 3-7 7-4 7-1 7 2 2h41l12-1v-10l-6-10-6-5-11-3z" fill="#434E5F"/>
<path transform="translate(1171,973)" d="m0 0 16 1 12 5 7 5 6 9 4 10 2 12v10l-3 3h-60l-8 1v7l5 10 5 5 7 4 8 2h11l16-4 5-2 5 1 3 6-1 5-7 4-10 3-10 1h-15l-13-2-10-5-6-4-8-10-4-9-2-8v-21l4-13 7-11 9-8 11-5 3-1zm-2 14-8 2-7 4-7 10-2 10 1 1 16 1h21l16-1 1-4-4-13-2-3h-2v-2l-7-4-4-1z" fill="#444F60"/>
<path transform="translate(1284,973)" d="m0 0h11l10 2 7 3 5 4 5 10 2 8v68l-4 2h-12l-2-2-1-57-2-11-4-6-4-3-8-2-11 1-10 4h-2v2h-2v2h-2v2h-2l-3 11-1 58-3 1h-15v-94l3-1h8l5 2 1 13 7-6 12-8 4-2z" fill="#404B5C"/>
<path transform="translate(1588,930)" d="m0 0h27l1 1v138l-2 2-26-1-1-6v-133z" fill="#3F4A5B"/>
<path transform="translate(523,917)" d="m0 0 6 4 18 5 41 16 6 3 5-2-3 21-17-7-11-3-12-5-20-7-17-6-5-2-9 5-14 7-5 2v120h-14l-10 2 2-2 3-1v-118l-1-2-12-4-2-2 9 2 6 2h18l12-4 16-10h2l2-5z" fill="#8BA7C7"/>
<path transform="translate(1073,973)" d="m0 0h15l12 2 9 3 1 4-3 8-1 1-11-1-7-2-11-1-9 3-5 4-1 5 2 6 5 4 10 4 14 5 8 4 9 7 4 8v12l-6 12-8 6-7 3-8 1h-16l-12-2-8-2-5-3-1-5 3-7h8l6 3 8 2h16l8-4 3-5v-6l-3-5-12-6-18-5-13-8-4-7-1-2v-16l4-8 5-5 12-6z" fill="#424D5E"/>
<path transform="translate(1376,974)" d="m0 0h28l9 2 4 2 1 6-3 8-7-1-8-2h-14l-10 3-6 4h-2l-2 4-3 5-2 6v20l4 11 3 4v2h2v2l5 2 6 3 5 1h9l14-3 5-1 4 9-2 5-11 4-16 2-16-2-10-4-9-7-8-10-4-9-2-13v-10l2-12 6-12 8-9 9-6z" fill="#424D5E"/>
<path transform="translate(508,908)" d="m0 0 5 2 4 2h6l-1 9-6 8-4 4-8 5-12 6-7 2h-18l-19-6-3-3-1-3-6-2-3-6-4-4v-7l11-3h32l11-2z" fill="#394353"/>
<path transform="translate(922,973)" d="m0 0h9l1 1 1 7v9l-3 1h-9l-8 3-8 6-4 6-2 6-1 56-5 2h-11l-2-2v-91l3-2h10l3 2 3 14 2-1 4-7 11-8z" fill="#414C5E"/>
<path transform="translate(475,724)" d="m0 0 9 3 4 5 1 7v59l-2 6-4 5-2 1h-10l-5-4-2-4v-67l3-7z" fill="#8CA8C7"/>
<path transform="translate(582,774)" d="m0 0h7l6 4 3 9-4 8-40 40-5 3h-8l-6-4-3-5 1-7 3-5 37-37z" fill="#394454"/>
<path transform="translate(365,774)" d="m0 0h6l9 7 22 22 2 1v2h2v2l4 2 2 4h2v2h2l4 7v7l-5 6-4 2-9-1-7-5-7-8-14-14-8-7-10-12-1-5 2-7 5-4z" fill="#89A5C5"/>
<path transform="translate(429,916)" d="m0 0 2 3 3 5 4 5v3l6 1v3l-2-1h-7l-5 3-21 7-6 3-11 3-11 5-10 3-8 3-3 1-2 2-1-17-2-5 5 1 32-12 14-5 12-5 8-2z" fill="#8BA7C7"/>
<path transform="translate(1e3 929)" d="m0 0h11l4 2-15 14-5 5h-2v2l-9 7h-9l-2-1 1-4 8-10 8-11 3-3z" fill="#4C5768"/>
<path transform="translate(582,774)" d="m0 0h7l6 4 3 9-4 8-18 18v-3l16-16 2-3v-11l-2-1 1 8-8 2-7-3v-4l2-4-9 7-35 35-1 8 3 6 10 1 6-3 5-5 2 1-7 7-5 3h-8l-6-4-3-5 1-7 3-5 37-37z" fill="#88A5C5"/>
<path transform="translate(580,775)" d="m0 0 2 1-11 9-35 35-1 8 3 6 10 1 6-3 5-5 2 1-7 7-5 3h-8l-6-4-3-5 1-7 3-5 37-37z" fill="#BACBDD"/>
<path transform="translate(591,776)" d="m0 0 4 2 3 9-4 8-18 18v-3l16-16 2-3v-11l-3-2z" fill="#94AECB"/>
<path transform="translate(559,827)" d="m0 0 2 1-7 7-5 3h-8l-6-4-2-6h2l3 6 10 1 6-3z" fill="#88A5C5"/>
</svg>
