<?xml version="1.0" encoding="UTF-8"?>
<svg id="Calque_1" xmlns="http://www.w3.org/2000/svg" version="1.1" viewBox="0 0 2222.73 570">
  <!-- Generator: Adobe Illustrator 30.1.0, SVG Export Plug-In . SVG Version: 2.1.1 Build 136)  -->
  <defs>
    <style>
      .st0 {
        letter-spacing: 0em;
      }

      .st0, .st1, .st2, .st3 {
        fill: #fff;
      }

      .st0, .st4 {
        font-size: 230px;
      }

      .st1, .st5, .st3 {
        font-size: 271.79px;
      }

      .st2 {
        stroke: #fff;
        stroke-linecap: round;
        stroke-miterlimit: 10;
        stroke-width: 26px;
      }

      .st4 {
        letter-spacing: -.03em;
      }

      .st4, .st6 {
        font-family: GillSans-Bold, 'Gill Sans';
        font-weight: 700;
      }

      .st5 {
        fill: #7f8284;
        letter-spacing: -.05em;
      }

      .st3 {
        letter-spacing: -.03em;
      }

      .st7 {
        fill: #996d2e;
      }

      .st8 {
        fill: #616466;
      }
    </style>
  </defs>
  <g>
    <g>
      <line class="st2" x1="223.53" y1="119.93" x2="223.53" y2="57.33"/>
      <line class="st2" x1="291.93" y1="148.55" x2="331.63" y2="108.84"/>
      <line class="st2" x1="155.13" y1="148.55" x2="115.43" y2="108.84"/>
    </g>
    <rect class="st8" x="85.87" y="244.7" width="165.96" height="14.86" transform="translate(-77.59 75.08) rotate(-20.5)"/>
    <rect class="st8" x="197.52" y="244.7" width="165.96" height="14.86" transform="translate(454.96 586.52) rotate(-159.5)"/>
    <rect class="st8" x="142.02" y="304.86" width="165.96" height="14.86" transform="translate(-87.29 537.29) rotate(-90)"/>
    <g>
      <rect class="st8" x="218.75" y="365.56" width="165.96" height="18.67" transform="translate(-173.54 299.4) rotate(-42.15)"/>
      <rect class="st8" x="60.73" y="365.56" width="165.96" height="18.67" transform="translate(-1.29 749.28) rotate(-137.85)"/>
    </g>
    <circle class="st7" cx="221.57" cy="252.13" r="106.13"/>
    <circle class="st8" cx="223.53" cy="449.02" r="52"/>
    <g>
      <circle class="st8" cx="52" cy="287.02" r="52"/>
      <circle class="st8" cx="397.5" cy="288.52" r="50.5"/>
    </g>
  </g>
  <text class="st6" transform="translate(515.68 421.89)"><tspan class="st3" x="0" y="0">Présence</tspan><tspan class="st1" x="1199.22" y="0"> </tspan><tspan class="st5" x="1279.91" y="0">IA</tspan><tspan class="st0" x="1581.32" y="0">.</tspan></text>
  <text class="st4" transform="translate(5808.31 2490.43)"><tspan x="0" y="0">Lorem ipsum</tspan></text>
</svg>