<?xml version="1.0" encoding="UTF-8"?>
<svg id="Calque_1" xmlns="http://www.w3.org/2000/svg" version="1.1" viewBox="0 0 2222.73 570">
  <!-- Generator: Adobe Illustrator 30.1.0, SVG Export Plug-In . SVG Version: 2.1.1 Build 136)  -->
  <defs>
    <style>
      .st0, .st1, .st2, .st3 {
        isolation: isolate;
      }

      .st1 {
        font-family: GillSans-Bold, 'Gill Sans';
        font-size: 230px;
        font-weight: 700;
        letter-spacing: -.03em;
      }

      .st4 {
        stroke: #616466;
      }

      .st4, .st5 {
        fill: none;
        stroke-linecap: round;
        stroke-width: 10px;
      }

      .st4, .st5, .st2 {
        stroke-miterlimit: 10;
      }

      .st6, .st2, .st3 {
        fill: #fff;
      }

      .st5, .st2 {
        stroke: #fff;
      }

      .st7, .st8 {
        fill: #996d2e;
      }

      .st2 {
        font-family: GillSans-SemiBold, 'Gill Sans';
        font-size: 292.1px;
        font-weight: 600;
        letter-spacing: -.05em;
        stroke-width: 3px;
      }

      .st3 {
        font-family: GillSans, 'Gill Sans';
        font-size: 306.52px;
      }

      .st8 {
        opacity: .69;
      }

      .st9 {
        fill: #616466;
      }
    </style>
  </defs>
  <line class="st4" x1="284.03" y1="429.8" x2="391.91" y2="317.67"/>
  <line class="st4" x1="136.14" y1="320.55" x2="244.01" y2="432.67"/>
  <line class="st4" x1="136.14" y1="304.86" x2="203.36" y2="279.48"/>
  <line class="st4" x1="324.68" y1="279.48" x2="391.91" y2="304.86"/>
  <line class="st4" x1="262.86" y1="344.13" x2="264.07" y2="404.97"/>
  <g>
    <g>
      <line class="st5" x1="262.86" y1="149.31" x2="262.86" y2="91.56"/>
      <line class="st5" x1="319.28" y1="175.72" x2="352.02" y2="139.08"/>
      <line class="st5" x1="206.45" y1="175.72" x2="173.7" y2="139.08"/>
    </g>
    <ellipse class="st7" cx="261.25" cy="271.29" rx="87.53" ry="97.92"/>
    <ellipse class="st9" cx="262.86" cy="452.94" rx="42.89" ry="47.98"/>
    <g>
      <ellipse class="st9" cx="121.39" cy="303.48" rx="42.89" ry="47.98"/>
      <ellipse class="st9" cx="406.35" cy="304.86" rx="41.65" ry="46.59"/>
    </g>
  </g>
  <g class="st0">
    <path class="st6" d="M521.36,387.25v-209.39h66.3c19.96,0,35.87,5.39,47.74,16.16,11.87,10.78,17.81,25.24,17.81,43.4,0,12.17-3.04,22.95-9.13,32.33-6.09,9.38-14.42,16.19-24.99,20.43-10.58,4.24-25.74,6.36-45.5,6.36h-22.15v90.7h-30.08ZM582.42,204.5h-30.98v65.41h32.78c12.17,0,21.55-2.87,28.14-8.61,6.59-5.74,9.88-13.94,9.88-24.62,0-21.45-13.27-32.18-39.81-32.18Z"/>
    <path class="st6" d="M695.81,249.55v31.58l1.5-2.4c13.17-21.25,26.34-31.88,39.51-31.88,10.28,0,21,5.19,32.18,15.57l-14.37,23.95c-9.48-8.98-18.26-13.47-26.34-13.47-8.78,0-16.39,4.19-22.82,12.57-6.44,8.38-9.65,18.31-9.65,29.78v71.99h-27.39v-137.7h27.39Z"/>
    <path class="st6" d="M896.46,320.8h-96.84c.7,13.17,5.11,23.65,13.25,31.43,8.13,7.78,18.63,11.67,31.51,11.67,17.96,0,34.52-5.59,49.69-16.76v26.64c-8.38,5.59-16.69,9.58-24.92,11.97-8.23,2.4-17.89,3.59-28.96,3.59-15.17,0-27.44-3.14-36.82-9.43-9.38-6.29-16.89-14.74-22.53-25.37-5.64-10.63-8.46-22.92-8.46-36.89,0-20.95,5.94-37.99,17.81-51.11,11.87-13.12,27.29-19.68,46.25-19.68s32.83,6.39,43.7,19.16c10.87,12.77,16.31,29.88,16.31,51.34v3.44ZM800.22,304.48h69.3c-.7-10.88-3.94-19.26-9.73-25.15-5.79-5.89-13.57-8.83-23.35-8.83s-17.79,2.94-24.02,8.83c-6.24,5.89-10.3,14.27-12.2,25.15Z"/>
    <path class="st6" d="M910.32,377.37v-29.33c7.68,5.39,15.54,9.75,23.57,13.1,8.03,3.34,14.79,5.01,20.28,5.01s10.58-1.4,14.67-4.19c4.09-2.79,6.14-6.14,6.14-10.03s-1.32-7.31-3.97-9.95c-2.65-2.64-8.36-6.46-17.14-11.45-17.56-9.78-29.06-18.13-34.5-25.07-5.44-6.93-8.16-14.49-8.16-22.68,0-10.57,4.12-19.21,12.35-25.89,8.23-6.68,18.83-10.03,31.8-10.03s27.29,3.79,41.46,11.38v26.94c-16.16-9.78-29.39-14.67-39.66-14.67-5.29,0-9.56,1.12-12.8,3.37-3.24,2.25-4.86,5.22-4.86,8.91,0,3.2,1.47,6.25,4.41,9.14,2.94,2.9,8.1,6.39,15.49,10.48l9.73,5.54c22.96,12.97,34.44,27.33,34.44,43.09,0,11.27-4.42,20.53-13.25,27.76-8.83,7.23-20.18,10.85-34.05,10.85-8.18,0-15.47-.87-21.85-2.62-6.39-1.74-14.42-4.96-24.1-9.65Z"/>
    <path class="st6" d="M1143.44,320.8h-96.84c.7,13.17,5.11,23.65,13.25,31.43,8.13,7.78,18.63,11.67,31.51,11.67,17.96,0,34.52-5.59,49.69-16.76v26.64c-8.38,5.59-16.69,9.58-24.92,11.97-8.23,2.4-17.88,3.59-28.96,3.59-15.17,0-27.44-3.14-36.82-9.43-9.38-6.29-16.89-14.74-22.53-25.37-5.64-10.63-8.46-22.92-8.46-36.89,0-20.95,5.94-37.99,17.81-51.11,11.87-13.12,27.29-19.68,46.25-19.68s32.83,6.39,43.7,19.16c10.87,12.77,16.31,29.88,16.31,51.34v3.44ZM1047.21,304.48h69.3c-.7-10.88-3.94-19.26-9.73-25.15-5.79-5.89-13.57-8.83-23.35-8.83s-17.79,2.94-24.02,8.83c-6.24,5.89-10.3,14.27-12.2,25.15Z"/>
    <path class="st6" d="M1191.28,249.55v17.51c12.17-13.47,25.99-20.21,41.46-20.21,8.58,0,16.56,2.22,23.95,6.66,7.38,4.44,13,10.53,16.84,18.26,3.84,7.73,5.76,19.98,5.76,36.74v78.73h-27.24v-78.43c0-14.07-2.15-24.12-6.44-30.16-4.29-6.04-11.48-9.06-21.55-9.06-12.87,0-23.8,6.44-32.78,19.31v98.33h-27.84v-137.7h27.84Z"/>
    <path class="st6" d="M1411.68,355.07v26.94c-13.67,5.09-27.04,7.63-40.11,7.63-21.55,0-38.74-6.38-51.56-19.16-12.82-12.77-19.23-29.88-19.23-51.34s6.24-39.11,18.71-52.38c12.47-13.27,28.89-19.91,49.24-19.91,7.08,0,13.44.67,19.08,2.02,5.64,1.35,12.6,3.87,20.88,7.56v29.04c-13.77-8.78-26.54-13.17-38.32-13.17s-22.35,4.32-30.23,12.95c-7.88,8.63-11.82,19.63-11.82,33,0,14.07,4.27,25.24,12.8,33.53,8.53,8.28,20.03,12.42,34.5,12.42,10.48,0,22.5-3.04,36.07-9.13Z"/>
    <path class="st6" d="M1551.12,320.8h-96.84c.7,13.17,5.11,23.65,13.25,31.43,8.13,7.78,18.63,11.67,31.51,11.67,17.96,0,34.52-5.59,49.69-16.76v26.64c-8.38,5.59-16.69,9.58-24.92,11.97-8.23,2.4-17.88,3.59-28.96,3.59-15.17,0-27.44-3.14-36.82-9.43-9.38-6.29-16.89-14.74-22.53-25.37-5.64-10.63-8.46-22.92-8.46-36.89,0-20.95,5.94-37.99,17.81-51.11,11.87-13.12,27.29-19.68,46.25-19.68s32.83,6.39,43.7,19.16c10.87,12.77,16.31,29.88,16.31,51.34v3.44ZM1454.88,304.48h69.3c-.7-10.88-3.94-19.26-9.73-25.15-5.79-5.89-13.57-8.83-23.35-8.83s-17.79,2.94-24.02,8.83c-6.24,5.89-10.3,14.27-12.2,25.15Z"/>
    <text class="st3" transform="translate(1852.42 387.25)"><tspan x="0" y="0"> </tspan></text>
  </g>
  <g class="st0">
    <text class="st1" transform="translate(5808.31 2490.43)"><tspan x="0" y="0">Lorem ipsum</tspan></text>
  </g>
  <text class="st2" transform="translate(1627.98 375.44) scale(.9 1)"><tspan x="0" y="0">IA</tspan></text>
  <circle class="st8" cx="1948.92" cy="371.46" r="20.01"/>
</svg>