<?xml version="1.0" encoding="UTF-8"?>
<svg id="Calque_1" xmlns="http://www.w3.org/2000/svg" version="1.1" viewBox="0 0 448 456.69">
  <!-- Generator: Adobe Illustrator 30.1.0, SVG Export Plug-In . SVG Version: 2.1.1 Build 136)  -->
  <defs>
    <style>
      .st0 {
        fill: none;
      }

      .st1 {
        fill: #1c2b46;
      }
    </style>
  </defs>
  <path class="st0" d="M354.3,270.36c-4.63-7.63-7.3-16.59-7.3-26.17,0-1.2.06-2.38.14-3.56l-22.29-8.33c-10.25,43.38-47.12,76.48-92.42,81.08v37.56h-14.86v-37.09c-47.65-1.77-87.27-34.93-98.76-79.42l-14.88,5.56c.05.89.07,1.79.07,2.7,0,11.36-3.65,21.86-9.83,30.41l98.86,89.48c8.57-6.22,19.1-9.89,30.5-9.89s21.2,3.42,29.6,9.25l101.18-91.58Z"/>
  <path class="st1" d="M223.53,88.6c7.18,0,13-5.82,13-13V13c0-7.18-5.82-13-13-13s-13,5.82-13,13v62.6c0,7.18,5.82,13,13,13Z"/>
  <path class="st1" d="M291.93,117.22c3.33,0,6.66-1.27,9.19-3.81l39.7-39.71c5.08-5.08,5.08-13.31,0-18.38s-13.31-5.08-18.38,0l-39.7,39.71c-5.08,5.08-5.08,13.31,0,18.38,2.54,2.54,5.86,3.81,9.19,3.81Z"/>
  <path class="st1" d="M145.94,113.41c2.54,2.54,5.87,3.81,9.19,3.81s6.65-1.27,9.19-3.81c5.08-5.08,5.08-13.31,0-18.38l-39.7-39.71c-5.08-5.08-13.31-5.08-18.38,0s-5.08,13.31,0,18.38l39.7,39.71Z"/>
  <path class="st1" d="M397.5,193.69c-21.47,0-39.8,13.4-47.1,32.3l-23.13-8.65c.28-3.14.43-6.32.43-9.54,0-58.61-47.52-106.13-106.13-106.13s-106.13,47.52-106.13,106.13c0,3.98.23,7.91.65,11.78l-15.11,5.65c-7.18-20.13-26.39-34.54-48.99-34.54-28.72,0-52,23.28-52,52s23.28,52,52,52c10.6,0,20.45-3.18,28.67-8.62l99.44,90.01c-5.42,8.21-8.59,18.04-8.59,28.61,0,28.72,23.28,52,52,52s52-23.28,52-52c0-10.97-3.4-21.13-9.2-29.52l100.44-90.92c8.51,6.54,19.16,10.43,30.72,10.43,27.89,0,50.5-22.61,50.5-50.5s-22.61-50.5-50.5-50.5ZM193.03,362.58l-98.86-89.48c6.18-8.55,9.83-19.05,9.83-30.41,0-.91-.02-1.81-.07-2.7l14.88-5.56c11.49,44.49,51.11,77.65,98.76,79.42v37.09h14.86v-37.56c45.3-4.6,82.17-37.7,92.42-81.08l22.29,8.33c-.08,1.18-.14,2.36-.14,3.56,0,9.58,2.67,18.54,7.3,26.17l-101.18,91.58c-8.4-5.83-18.6-9.25-29.6-9.25s-21.93,3.68-30.5,9.89Z"/>
</svg>