<?xml version="1.0" encoding="UTF-8"?>
<svg id="Calque_1" xmlns="http://www.w3.org/2000/svg" version="1.1" viewBox="0 0 2222.73 570">
  <!-- Generator: Adobe Illustrator 30.1.0, SVG Export Plug-In . SVG Version: 2.1.1 Build 136)  -->
  <defs>
    <style>
      .st0 {
        fill: none;
        stroke: #527fb3;
        stroke-linecap: round;
        stroke-miterlimit: 10;
        stroke-width: 26px;
      }

      .st1 {
        fill: #996710;
      }

      .st2, .st3, .st4, .st5, .st6 {
        isolation: isolate;
      }

      .st7 {
        fill: #394455;
      }

      .st3 {
        font-size: 230px;
      }

      .st3, .st4, .st5, .st6 {
        font-family: GillSans-Bold, 'Gill Sans';
        font-weight: 700;
      }

      .st4 {
        letter-spacing: -.03em;
      }

      .st4, .st5, .st6 {
        font-size: 271.79px;
      }

      .st8 {
        fill: #527fb3;
      }

      .st6 {
        fill: #99713d;
        letter-spacing: -.05em;
      }
    </style>
  </defs>
  <g>
    <g>
      <line class="st0" x1="223.53" y1="125.75" x2="223.53" y2="63.16"/>
      <line class="st0" x1="291.93" y1="154.37" x2="331.63" y2="114.67"/>
      <line class="st0" x1="155.13" y1="154.37" x2="115.43" y2="114.67"/>
    </g>
    <rect class="st8" x="85.89" y="250.51" width="165.96" height="14.86" transform="translate(-79.64 75.47) rotate(-20.5)"/>
    <rect class="st8" x="273.09" y="174.96" width="14.86" height="165.96" transform="translate(-59.33 430.37) rotate(-69.5)"/>
    <rect class="st8" x="217.57" y="235.13" width="14.86" height="165.96"/>
    <g>
      <rect class="st7" x="218.76" y="371.35" width="165.96" height="18.67" transform="translate(-177.44 300.94) rotate(-42.15)"/>
      <rect class="st7" x="134.41" y="297.75" width="18.67" height="165.96" transform="translate(-234.99 231.8) rotate(-47.85)"/>
    </g>
    <circle class="st1" cx="221.57" cy="257.96" r="106.13"/>
    <circle class="st8" cx="223.53" cy="454.84" r="52"/>
    <g>
      <circle class="st7" cx="52" cy="292.84" r="52"/>
      <circle class="st7" cx="397.5" cy="294.34" r="50.5"/>
    </g>
  </g>
  <g class="st2">
    <text class="st4" transform="translate(515.68 427.72)"><tspan x="0" y="0">Présence</tspan></text>
    <text class="st5" transform="translate(1714.9 427.72)"><tspan x="0" y="0"> </tspan></text>
    <text class="st6" transform="translate(1795.59 427.72)"><tspan x="0" y="0">IA</tspan></text>
    <text class="st3" transform="translate(2097 427.72)"><tspan x="0" y="0">.</tspan></text>
  </g>
</svg>